HIERARCHY
ROOT pelvis
{
	OFFSET 0.003123 -0.351407 0.012037
	CHANNELS 6 Xposition Yposition Zposition Zrotation Yrotation Xrotation 
	JOINT left_hip
	{
		OFFSET 0.058189 -0.092763 -0.026001
		CHANNELS 3 Zrotation Yrotation Xrotation
		JOINT left_knee
		{
			OFFSET 0.054695 -0.378753 -0.009396
			CHANNELS 3 Zrotation Yrotation Xrotation
			JOINT left_ankle
			{
				OFFSET -0.043453 -0.403059 -0.031876
				CHANNELS 3 Zrotation Yrotation Xrotation
				JOINT left_foot
				{
					OFFSET 0.047257 -0.057997 0.118216
					CHANNELS 3 Zrotation Yrotation Xrotation
					End Site
					{
						OFFSET 0.000000 0.000000 0.000000
					}
				}
			}
		}
	}
	JOINT right_hip
	{
		OFFSET -0.063267 -0.103908 -0.021250
		CHANNELS 3 Zrotation Yrotation Xrotation
		JOINT right_knee
		{
			OFFSET -0.044210 -0.362380 -0.016824
			CHANNELS 3 Zrotation Yrotation Xrotation
			JOINT right_ankle
			{
				OFFSET 0.015417 -0.410728 -0.020192
				CHANNELS 3 Zrotation Yrotation Xrotation
				JOINT right_foot
				{
					OFFSET -0.038812 -0.058328 0.119049
					CHANNELS 3 Zrotation Yrotation Xrotation
					End Site
					{
						OFFSET 0.000000 0.000000 0.000000
					}
				}
			}
		}
	}
	JOINT spine_1
	{
		OFFSET -0.002763 0.109891 -0.027618
		CHANNELS 3 Zrotation Yrotation Xrotation
		JOINT spine_2
		{
			OFFSET 0.009448 0.131853 -0.005940
			CHANNELS 3 Zrotation Yrotation Xrotation
			JOINT spine_3
			{
				OFFSET -0.011330 0.052235 0.028447
				CHANNELS 3 Zrotation Yrotation Xrotation
				JOINT neck
				{
					OFFSET -0.012164 0.165167 -0.031615
					CHANNELS 3 Zrotation Yrotation Xrotation
					JOINT head
					{
						OFFSET 0.024783 0.160452 0.020737
						CHANNELS 3 Zrotation Yrotation Xrotation
						End Site
						{
							OFFSET 0.000000 0.000000 0.000000
						}
					}
				}
				JOINT left_collar
				{
					OFFSET 0.046364 0.084944 -0.007220
					CHANNELS 3 Zrotation Yrotation Xrotation
					JOINT left_shoulder
					{
						OFFSET 0.119239 0.057728 -0.015461
						CHANNELS 3 Zrotation Yrotation Xrotation
						JOINT left_elbow
						{
							OFFSET 0.254123 -0.072151 -0.042459
							CHANNELS 3 Zrotation Yrotation Xrotation
							JOINT left_wrist
							{
								OFFSET 0.251987 0.023221 -0.002472
								CHANNELS 3 Zrotation Yrotation Xrotation
								JOINT left_index_1
								{
									OFFSET 0.101902 -0.008688 0.019351
									CHANNELS 3 Zrotation Yrotation Xrotation
									JOINT left_index_2
									{
										OFFSET 0.030149 -0.011154 0.001151
										CHANNELS 3 Zrotation Yrotation Xrotation
										JOINT left_index_3
										{
											OFFSET 0.006504 -0.021577 -0.002433
											CHANNELS 3 Zrotation Yrotation Xrotation
											End Site
											{
												OFFSET 0.000000 0.000000 0.000000
											}
										}
									}
								}
								JOINT left_middle_1
								{
									OFFSET 0.109398 -0.006328 -0.003981
									CHANNELS 3 Zrotation Yrotation Xrotation
									JOINT left_middle_2
									{
										OFFSET 0.026472 -0.015218 -0.004641
										CHANNELS 3 Zrotation Yrotation Xrotation
										JOINT left_middle_3
										{
											OFFSET 0.005022 -0.023347 -0.001911
											CHANNELS 3 Zrotation Yrotation Xrotation
											End Site
											{
												OFFSET 0.000000 0.000000 0.000000
											}
										}
									}
								}
								JOINT left_pinky_1
								{
									OFFSET 0.084047 -0.014539 -0.043750
									CHANNELS 3 Zrotation Yrotation Xrotation
									JOINT left_pinky_2
									{
										OFFSET 0.012124 -0.014448 -0.005375
										CHANNELS 3 Zrotation Yrotation Xrotation
										JOINT left_pinky_3
										{
											OFFSET 0.003798 -0.018853 0.000167
											CHANNELS 3 Zrotation Yrotation Xrotation
											End Site
											{
												OFFSET 0.000000 0.000000 0.000000
											}
										}
									}
								}
								JOINT left_ring_1
								{
									OFFSET 0.097444 -0.009268 -0.027345
									CHANNELS 3 Zrotation Yrotation Xrotation
									JOINT left_ring_2
									{
										OFFSET 0.023561 -0.016057 -0.001895
										CHANNELS 3 Zrotation Yrotation Xrotation
										JOINT left_ring_3
										{
											OFFSET 0.004257 -0.023548 0.000814
											CHANNELS 3 Zrotation Yrotation Xrotation
											End Site
											{
												OFFSET 0.000000 0.000000 0.000000
											}
										}
									}
								}
								JOINT left_thumb_1
								{
									OFFSET 0.040636 -0.017977 0.025611
									CHANNELS 3 Zrotation Yrotation Xrotation
									JOINT left_thumb_2
									{
										OFFSET 0.021637 -0.017639 0.011623
										CHANNELS 3 Zrotation Yrotation Xrotation
										JOINT left_thumb_3
										{
											OFFSET 0.024002 -0.008356 0.006548
											CHANNELS 3 Zrotation Yrotation Xrotation
											End Site
											{
												OFFSET 0.000000 0.000000 0.000000
											}
										}
									}
								}
							}
						}
					}
				}
				JOINT right_collar
				{
					OFFSET -0.047695 0.084339 -0.013400
					CHANNELS 3 Zrotation Yrotation Xrotation
					JOINT right_shoulder
					{
						OFFSET -0.102578 0.053524 -0.012669
						CHANNELS 3 Zrotation Yrotation Xrotation
						JOINT right_elbow
						{
							OFFSET -0.271150 -0.036492 -0.026467
							CHANNELS 3 Zrotation Yrotation Xrotation
							JOINT right_wrist
							{
								OFFSET -0.249267 -0.004533 -0.015325
								CHANNELS 3 Zrotation Yrotation Xrotation
								JOINT right_index_1
								{
									OFFSET -0.099881 -0.011783 0.019600
									CHANNELS 3 Zrotation Yrotation Xrotation
									JOINT right_index_2
									{
										OFFSET -0.030148 -0.011154 0.001151
										CHANNELS 3 Zrotation Yrotation Xrotation
										JOINT right_index_3
										{
											OFFSET -0.006505 -0.021577 -0.002432
											CHANNELS 3 Zrotation Yrotation Xrotation
											End Site
											{
												OFFSET 0.000000 0.000000 0.000000
											}
										}
									}
								}
								JOINT right_middle_1
								{
									OFFSET -0.107376 -0.009422 -0.003734
									CHANNELS 3 Zrotation Yrotation Xrotation
									JOINT right_middle_2
									{
										OFFSET -0.026472 -0.015218 -0.004641
										CHANNELS 3 Zrotation Yrotation Xrotation
										JOINT right_middle_3
										{
											OFFSET -0.005022 -0.023347 -0.001911
											CHANNELS 3 Zrotation Yrotation Xrotation
											End Site
											{
												OFFSET 0.000000 0.000000 0.000000
											}
										}
									}
								}
								JOINT right_pinky_1
								{
									OFFSET -0.082027 -0.017634 -0.043503
									CHANNELS 3 Zrotation Yrotation Xrotation
									JOINT right_pinky_2
									{
										OFFSET -0.012123 -0.014448 -0.005374
										CHANNELS 3 Zrotation Yrotation Xrotation
										JOINT right_pinky_3
										{
											OFFSET -0.003798 -0.018852 0.000167
											CHANNELS 3 Zrotation Yrotation Xrotation
											End Site
											{
												OFFSET 0.000000 0.000000 0.000000
											}
										}
									}
								}
								JOINT right_ring_1
								{
									OFFSET -0.095423 -0.012362 -0.027099
									CHANNELS 3 Zrotation Yrotation Xrotation
									JOINT right_ring_2
									{
										OFFSET -0.023561 -0.016057 -0.001895
										CHANNELS 3 Zrotation Yrotation Xrotation
										JOINT right_ring_3
										{
											OFFSET -0.004257 -0.023548 0.000816
											CHANNELS 3 Zrotation Yrotation Xrotation
											End Site
											{
												OFFSET 0.000000 0.000000 0.000000
											}
										}
									}
								}
								JOINT right_thumb_1
								{
									OFFSET -0.038613 -0.021074 0.025861
									CHANNELS 3 Zrotation Yrotation Xrotation
									JOINT right_thumb_2
									{
										OFFSET -0.021636 -0.017639 0.011623
										CHANNELS 3 Zrotation Yrotation Xrotation
										JOINT right_thumb_3
										{
											OFFSET -0.024004 -0.008353 0.006547
											CHANNELS 3 Zrotation Yrotation Xrotation
											End Site
											{
												OFFSET 0.000000 0.000000 0.000000
											}
										}
									}
								}
							}
						}
					}
				}
			}
		}
	}
}
MOTION
Frames: 4
Frame Time: 0.050000
0.014926 1.011372 0.095619 1.445061 -4.269302 -38.599457 1.490691 4.081944 27.661833 1.561275 -1.562616 11.744039 -14.711753 -10.817727 18.573294 0.000000 0.000000 0.000000 -4.780833 -1.989878 34.495510 -3.432028 1.761152 20.239597 9.940546 5.008040 17.328360 0.000000 0.000000 0.000000 2.434210 0.406822 -1.800318 2.467020 2.725651 16.735369 1.992772 -5.183389 17.472929 -2.525561 -1.689159 21.104601 0.000000 0.000000 0.000000 -16.627228 -15.664633 10.520846 -4.994844 -29.659785 -8.608545 156.721248 -71.170633 -131.472094 11.455824 -9.293002 -10.942786 -9.859093 -11.325268 -1.794082 7.343788 -3.813977 -17.843949 0.000000 0.000000 0.000000 -10.017324 -16.243422 -8.356697 -6.226764 -3.602123 -15.680204 0.000000 0.000000 0.000000 14.640173 -14.259252 -16.933552 -15.000733 -3.954323 -9.461920 0.000000 0.000000 0.000000 -7.020658 -13.018460 -7.823668 -10.676445 -5.801563 -17.025749 0.000000 0.000000 0.000000 12.235534 7.140584 -1.231852 -17.150338 -6.826211 2.844269 0.000000 0.000000 0.000000 13.745771 11.731655 5.254332 29.504174 19.017425 -1.629361 118.152505 88.352067 111.909434 -2.482254 16.036680 2.506769 16.537422 3.934213 -0.338290 17.769543 -0.984914 -3.475398 0.000000 0.000000 0.000000 24.029582 15.409449 -8.993600 25.876531 1.916604 -11.076538 0.000000 0.000000 0.000000 -5.980701 24.254572 -28.725690 39.139468 4.856760 -8.013933 0.000000 0.000000 0.000000 20.797636 20.751941 -10.510353 29.630674 5.418185 -12.097455 0.000000 0.000000 0.000000 -14.159063 -23.916857 20.012327 8.649497 12.650735 -0.814350 0.000000 0.000000 0.000000 
0.009979 1.010082 0.079781 2.537703 -7.555208 -39.503082 1.657582 4.031215 25.755284 0.376748 -2.069712 20.018814 -14.151509 -11.245560 17.775316 0.000000 0.000000 0.000000 -4.638653 -1.485543 35.359238 -4.090156 1.575636 16.161008 10.842176 7.180480 15.625739 0.000000 0.000000 0.000000 2.665766 0.286740 -0.835481 1.384406 3.296624 14.626738 2.638158 -5.800480 21.061492 -3.601151 -0.968839 20.187324 0.000000 0.000000 0.000000 -16.901194 -14.142160 9.994222 -1.822376 -30.732020 -9.275670 149.373719 -69.235314 -120.126771 12.146868 -8.044526 -13.401544 -6.987592 -10.140497 -1.855803 5.172932 -4.070852 -18.947317 0.000000 0.000000 0.000000 -8.348859 -15.725525 -8.060408 -11.287726 -5.531291 -19.551825 0.000000 0.000000 0.000000 15.935610 -13.120140 -15.660728 -21.825717 -6.924843 -13.299981 0.000000 0.000000 0.000000 -6.564645 -13.693419 -8.253787 -12.842685 -7.149668 -18.561880 0.000000 0.000000 0.000000 14.716327 8.017667 -2.073908 -17.552502 -8.892206 2.540544 0.000000 0.000000 0.000000 13.603005 12.946269 5.822605 26.295458 22.846289 -1.699533 42.285409 87.071245 35.024541 -2.672592 16.714371 2.028275 15.495367 5.759126 -0.823207 17.920476 -0.767505 -3.919310 0.000000 0.000000 0.000000 18.668783 16.181478 -9.220763 28.553542 5.141580 -17.899742 0.000000 0.000000 0.000000 -13.396424 21.759985 -25.247890 41.231473 7.468840 -12.244198 0.000000 0.000000 0.000000 14.497161 19.474575 -10.700555 31.986647 7.949694 -16.843290 0.000000 0.000000 0.000000 -14.334731 -24.504165 20.648976 9.995721 12.332414 -0.258649 0.000000 0.000000 0.000000 
0.005739 1.008793 0.066582 2.809930 -8.619226 -39.387262 1.092147 4.178453 25.474550 -0.479841 -2.388405 28.204792 -13.099618 -10.947902 16.365315 0.000000 0.000000 0.000000 -3.919167 -1.537835 34.842718 -3.340063 1.205505 13.626625 10.529250 6.904468 15.106200 0.000000 0.000000 0.000000 2.479823 0.290302 -1.228328 1.623605 3.288034 14.835685 2.140286 -5.036674 20.936900 -3.661216 -0.993933 20.463589 0.000000 0.000000 0.000000 -16.536367 -15.517201 10.810037 -1.710566 -30.784659 -9.284225 145.764431 -67.915961 -114.373358 13.826962 -7.417058 -15.460032 -6.482969 -11.155270 -1.973014 7.733462 -2.958697 -15.890113 0.000000 0.000000 0.000000 -8.308098 -16.273373 -8.121469 -5.396173 -4.389656 -19.289047 0.000000 0.000000 0.000000 15.351653 -11.801724 -13.910049 -17.276051 -6.846479 -14.622624 0.000000 0.000000 0.000000 -4.139820 -11.779682 -7.381642 -13.295271 -7.615761 -18.779625 0.000000 0.000000 0.000000 16.418592 8.593166 -2.771401 -15.978319 -9.692179 1.749006 0.000000 0.000000 0.000000 14.324214 12.763956 5.690255 25.233377 20.215127 -1.894098 81.550704 86.529808 72.446807 -3.423231 15.987437 3.109339 15.090504 7.164722 -1.240168 11.047194 0.806034 -5.727595 0.000000 0.000000 0.000000 19.036191 16.676570 -9.461099 24.266901 5.853152 -20.557607 0.000000 0.000000 0.000000 -12.940075 19.417360 -20.972090 36.649025 5.652090 -10.469165 0.000000 0.000000 0.000000 13.282217 17.671864 -9.875980 29.130924 7.851365 -18.560001 0.000000 0.000000 0.000000 -16.535415 -24.405215 20.116437 10.195391 13.814821 -0.556654 0.000000 0.000000 0.000000 
0.000498 1.008148 0.049423 2.563002 -9.950699 -39.106439 0.975470 4.631156 27.346070 -0.588478 -2.559302 33.424266 -12.544005 -10.636152 15.853976 0.000000 0.000000 0.000000 -3.807940 -1.414039 33.724612 -2.033153 0.918094 12.602021 10.394324 6.560741 14.992868 0.000000 0.000000 0.000000 2.010696 0.124863 -0.465626 1.773094 3.335844 14.919140 1.860836 -6.530260 18.811370 -4.628389 -0.528147 21.360408 0.000000 0.000000 0.000000 -15.616132 -14.042199 9.964510 -3.864613 -32.906173 -9.570902 144.349038 -68.939383 -112.664165 14.484792 -8.435184 -16.958109 -8.434570 -12.395710 -1.744880 6.019434 -3.698758 -19.918969 0.000000 0.000000 0.000000 -10.886567 -18.036527 -8.543514 -5.076504 -4.777016 -21.228828 0.000000 0.000000 0.000000 14.431110 -13.486459 -17.289814 -16.727242 -7.702470 -16.424114 0.000000 0.000000 0.000000 -5.785505 -14.869417 -8.960903 -10.696634 -8.487891 -23.047241 0.000000 0.000000 0.000000 17.697628 8.943128 -3.287116 -20.025492 -10.419292 2.972331 0.000000 0.000000 0.000000 16.433378 14.335386 6.245978 23.212674 18.983003 -1.906763 70.731999 84.568029 59.294125 -1.805657 16.886842 3.493324 16.908223 6.926399 -1.098650 14.718954 -0.720667 -3.278073 0.000000 0.000000 0.000000 22.099401 17.607561 -9.916621 28.024173 3.733676 -15.358787 0.000000 0.000000 0.000000 -9.899677 23.573801 -26.918882 46.785003 9.804325 -14.248757 0.000000 0.000000 0.000000 18.804051 19.462073 -10.137024 33.911934 8.124181 -17.387893 0.000000 0.000000 0.000000 -15.854296 -22.001153 17.405807 12.353324 12.586569 0.600052 0.000000 0.000000 0.000000 
